<svg width="152" height="152" viewBox="0 0 152 152" fill="none" xmlns="http://www.w3.org/2000/svg">
<rect width="152" height="152" rx="8" fill="#EEEEEE"/>
<path d="M71.0229 25.5226C76.8965 37.0761 58.8184 44.9233 50.5247 36.257C47.0688 32.5649 48.6583 25.43 57.041 21.5528C61.2361 19.5678 67.1097 17.7633 71.0229 25.5226Z" fill="black"/>
<path d="M107.997 20.4392C114.388 33.016 94.6978 41.5612 85.6723 32.1256C81.9099 28.1011 83.6378 20.3418 92.7746 16.1179C97.338 13.9549 103.731 11.9961 107.997 20.4392Z" fill="black"/>
<path fill-rule="evenodd" clip-rule="evenodd" d="M70.1852 127.951C83.559 129.421 97.4791 125.415 102.856 117.143C107.402 110.203 103.681 107.8 98.4432 113.404C87.4178 125.551 75.9772 120.078 71.1542 107.8L72.3952 107.401C95.6869 98.4596 110.297 74.175 101.064 60.43C88.3795 41.4805 48.6857 58.4261 43.7218 84.9829C39.1732 109.536 51.0267 125.95 70.1852 127.951ZM84.5228 61.7667C88.5201 67.9044 83.6971 89.6556 69.2232 99.5304C68.8104 96.458 68.8104 93.1245 69.0848 89.6556C71.9796 65.3686 80.251 55.3632 84.5228 61.7667Z" fill="black"/>
</svg>
